{"accessors":[{"bufferView":0,"byteOffset":0,"componentType":5126,"count":138,"max":[2.157557,1.814054,0.05838],"min":[-2.285962,-0.31025,-0.523659],"normalized":false,"type":"VEC3"},{"bufferView":1,"byteOffset":0,"componentType":5126,"count":138,"max":[0.992126,0.984252,0.944882,1],"min":[-0.968504,-0.984252,-0.88189,-1],"normalized":false,"type":"VEC4"},{"bufferView":2,"byteOffset":0,"componentType":5126,"count":138,"max":[0.864372,0.945189,0.97152],"min":[-0.994224,-0.958809,-0.966157],"normalized":false,"type":"VEC3"},{"bufferView":3,"byteOffset":0,"componentType":5126,"count":138,"max":[0.772461,0.949707],"min":[0.163574,0.046661],"normalized":false,"type":"VEC2"},{"bufferView":4,"byteOffset":0,"componentType":5125,"count":192,"max":[137],"min":[0],"normalized":false,"type":"SCALAR"},{"bufferView":5,"byteOffset":0,"componentType":5126,"count":122,"max":[1.503055,1.249715,1.126391],"min":[-1.483667,-1.105627,-1.07832],"normalized":false,"type":"VEC3"},{"bufferView":6,"byteOffset":0,"componentType":5126,"count":122,"max":[0.992126,0.897638,0.992126,1],"min":[-0.992126,-0.874016,-0.976378,-1],"normalized":false,"type":"VEC4"},{"bufferView":7,"byteOffset":0,"componentType":5126,"count":122,"max":[0.993389,0.997178,0.994441],"min":[-0.99618,-0.999591,-0.968437],"normalized":false,"type":"VEC3"},{"bufferView":8,"byteOffset":0,"componentType":5126,"count":122,"max":[0.98877,0.980957],"min":[0.016296,0.54834],"normalized":false,"type":"VEC2"},{"bufferView":9,"byteOffset":0,"componentType":5125,"count":456,"max":[121],"min":[0],"normalized":false,"type":"SCALAR"},{"bufferView":10,"byteOffset":0,"componentType":5126,"count":74,"max":[0.242364,0.246219,0.243116],"min":[-0.244151,-0.243956,-0.245774],"normalized":false,"type":"VEC3"},{"bufferView":11,"byteOffset":0,"componentType":5126,"count":74,"max":[0.992126,0.992126,0.322835,1],"min":[-0.992126,-0.992126,-0.267717,1],"normalized":false,"type":"VEC4"},{"bufferView":12,"byteOffset":0,"componentType":5126,"count":74,"max":[0.983693,0.999182,0.947234],"min":[-0.987133,-0.99534,-0.992988],"normalized":false,"type":"VEC3"},{"bufferView":13,"byteOffset":0,"componentType":5126,"count":74,"max":[1,1],"min":[0,0.062347],"normalized":false,"type":"VEC2"},{"bufferView":14,"byteOffset":0,"componentType":5125,"count":360,"max":[73],"min":[0],"normalized":false,"type":"SCALAR"},{"bufferView":15,"byteOffset":0,"componentType":5126,"count":16,"max":[0.063954,0.060422,0.250676],"min":[-0.06362,-0.060771,0.240393],"normalized":false,"type":"VEC3"},{"bufferView":16,"byteOffset":0,"componentType":5126,"count":16,"max":[0.968504,0.889764,0.629921,1],"min":[-0.976378,-0.929134,-0.740157,1],"normalized":false,"type":"VEC4"},{"bufferView":17,"byteOffset":0,"componentType":5126,"count":16,"max":[0.596102,0.325869,0.947234],"min":[-0.315745,-0.498886,0.651739],"normalized":false,"type":"VEC3"},{"bufferView":18,"byteOffset":0,"componentType":5126,"count":16,"max":[0.970703,0.064392],"min":[0.04184,0],"normalized":false,"type":"VEC2"},{"bufferView":19,"byteOffset":0,"componentType":5125,"count":18,"max":[15],"min":[0],"normalized":false,"type":"SCALAR"},{"bufferView":20,"byteOffset":0,"componentType":5126,"count":74,"max":[0.242364,0.246219,0.243116],"min":[-0.244151,-0.243956,-0.245774],"normalized":false,"type":"VEC3"},{"bufferView":21,"byteOffset":0,"componentType":5126,"count":74,"max":[0.992126,0.992126,0.322835,1],"min":[-0.992126,-0.992126,-0.267717,1],"normalized":false,"type":"VEC4"},{"bufferView":22,"byteOffset":0,"componentType":5126,"count":74,"max":[0.983693,0.999182,0.947234],"min":[-0.987133,-0.99534,-0.992988],"normalized":false,"type":"VEC3"},{"bufferView":23,"byteOffset":0,"componentType":5126,"count":74,"max":[1,1],"min":[0,0.062347],"normalized":false,"type":"VEC2"},{"bufferView":24,"byteOffset":0,"componentType":5125,"count":360,"max":[73],"min":[0],"normalized":false,"type":"SCALAR"},{"bufferView":25,"byteOffset":0,"componentType":5126,"count":16,"max":[0.063954,0.060422,0.250676],"min":[-0.06362,-0.060771,0.240393],"normalized":false,"type":"VEC3"},{"bufferView":26,"byteOffset":0,"componentType":5126,"count":16,"max":[0.968504,0.889764,0.629921,1],"min":[-0.976378,-0.929134,-0.740157,1],"normalized":false,"type":"VEC4"},{"bufferView":27,"byteOffset":0,"componentType":5126,"count":16,"max":[0.596102,0.325869,0.947234],"min":[-0.315745,-0.498886,0.651739],"normalized":false,"type":"VEC3"},{"bufferView":28,"byteOffset":0,"componentType":5126,"count":16,"max":[0.970703,0.064392],"min":[0.04184,0],"normalized":false,"type":"VEC2"},{"bufferView":29,"byteOffset":0,"componentType":5125,"count":18,"max":[15],"min":[0],"normalized":false,"type":"SCALAR"},{"bufferView":30,"byteOffset":0,"componentType":5126,"count":22,"max":[0.186556,0.481739,0.232874],"min":[-0.148728,-1.867197,-0.208326],"normalized":false,"type":"VEC3"},{"bufferView":31,"byteOffset":0,"componentType":5126,"count":22,"max":[1,0.992126,0.559055,1],"min":[-0.456693,0,-0.496063,-1],"normalized":false,"type":"VEC4"},{"bufferView":32,"byteOffset":0,"componentType":5126,"count":22,"max":[0.965914,0.956798,0.880897],"min":[-0.870825,-0.99646,-0.887186],"normalized":false,"type":"VEC3"},{"bufferView":33,"byteOffset":0,"componentType":5126,"count":22,"max":[0.628906,0.987305],"min":[0.446533,0.06604],"normalized":false,"type":"VEC2"},{"bufferView":34,"byteOffset":0,"componentType":5125,"count":60,"max":[21],"min":[0],"normalized":false,"type":"SCALAR"},{"bufferView":35,"byteOffset":0,"componentType":5126,"count":22,"max":[0.186556,0.481739,0.232874],"min":[-0.148728,-1.867197,-0.208326],"normalized":false,"type":"VEC3"},{"bufferView":36,"byteOffset":0,"componentType":5126,"count":22,"max":[1,0.992126,0.559055,1],"min":[-0.456693,0,-0.496063,-1],"normalized":false,"type":"VEC4"},{"bufferView":37,"byteOffset":0,"componentType":5126,"count":22,"max":[0.965914,0.956798,0.880897],"min":[-0.870825,-0.99646,-0.887186],"normalized":false,"type":"VEC3"},{"bufferView":38,"byteOffset":0,"componentType":5126,"count":22,"max":[0.628906,0.987305],"min":[0.446533,0.06604],"normalized":false,"type":"VEC2"},{"bufferView":39,"byteOffset":0,"componentType":5125,"count":60,"max":[21],"min":[0],"normalized":false,"type":"SCALAR"},{"bufferView":40,"byteOffset":0,"componentType":5126,"count":22,"max":[0.186556,0.481739,0.232874],"min":[-0.148728,-1.867197,-0.208326],"normalized":false,"type":"VEC3"},{"bufferView":41,"byteOffset":0,"componentType":5126,"count":22,"max":[1,0.992126,0.559055,1],"min":[-0.456693,0,-0.496063,-1],"normalized":false,"type":"VEC4"},{"bufferView":42,"byteOffset":0,"componentType":5126,"count":22,"max":[0.965914,0.956798,0.880897],"min":[-0.870825,-0.99646,-0.887186],"normalized":false,"type":"VEC3"},{"bufferView":43,"byteOffset":0,"componentType":5126,"count":22,"max":[0.628906,0.987305],"min":[0.446533,0.06604],"normalized":false,"type":"VEC2"},{"bufferView":44,"byteOffset":0,"componentType":5125,"count":60,"max":[21],"min":[0],"normalized":false,"type":"SCALAR"},{"bufferView":45,"byteOffset":0,"componentType":5126,"count":22,"max":[0.186556,0.481739,0.232874],"min":[-0.148728,-1.867197,-0.208326],"normalized":false,"type":"VEC3"},{"bufferView":46,"byteOffset":0,"componentType":5126,"count":22,"max":[1,0.992126,0.559055,1],"min":[-0.456693,0,-0.496063,-1],"normalized":false,"type":"VEC4"},{"bufferView":47,"byteOffset":0,"componentType":5126,"count":22,"max":[0.965914,0.956798,0.880897],"min":[-0.870825,-0.99646,-0.887186],"normalized":false,"type":"VEC3"},{"bufferView":48,"byteOffset":0,"componentType":5126,"count":22,"max":[0.628906,0.987305],"min":[0.446533,0.06604],"normalized":false,"type":"VEC2"},{"bufferView":49,"byteOffset":0,"componentType":5125,"count":60,"max":[21],"min":[0],"normalized":false,"type":"SCALAR"},{"bufferView":50,"byteOffset":0,"componentType":5126,"count":19,"max":[0.919392,0.169346,0.44241],"min":[-0.276095,-0.268632,-0.371018],"normalized":false,"type":"VEC3"},{"bufferView":51,"byteOffset":0,"componentType":5126,"count":19,"max":[1,0.708661,0.818898,1],"min":[-0.952756,-0.307087,-0.80315,-1],"normalized":false,"type":"VEC4"},{"bufferView":52,"byteOffset":0,"componentType":5126,"count":19,"max":[0.827458,0.989791,0.957967],"min":[-0.80932,-0.548744,-0.691894],"normalized":false,"type":"VEC3"},{"bufferView":53,"byteOffset":0,"componentType":5126,"count":19,"max":[0.375,0.969727],"min":[0.363281,0.001685],"normalized":false,"type":"VEC2"},{"bufferView":54,"byteOffset":0,"componentType":5125,"count":36,"max":[18],"min":[0],"normalized":false,"type":"SCALAR"},{"bufferView":55,"byteOffset":0,"componentType":5126,"count":19,"max":[0.919392,0.169346,0.44241],"min":[-0.276095,-0.268632,-0.371018],"normalized":false,"type":"VEC3"},{"bufferView":56,"byteOffset":0,"componentType":5126,"count":19,"max":[1,0.708661,0.818898,1],"min":[-0.952756,-0.307087,-0.80315,-1],"normalized":false,"type":"VEC4"},{"bufferView":57,"byteOffset":0,"componentType":5126,"count":19,"max":[0.827458,0.989791,0.957967],"min":[-0.80932,-0.548744,-0.691894],"normalized":false,"type":"VEC3"},{"bufferView":58,"byteOffset":0,"componentType":5126,"count":19,"max":[0.375,0.969727],"min":[0.363281,0.001685],"normalized":false,"type":"VEC2"},{"bufferView":59,"byteOffset":0,"componentType":5125,"count":36,"max":[18],"min":[0],"normalized":false,"type":"SCALAR"}],"asset":{"generator":"Godot Engine v3.5.2.stable.custom_build@unknown","version":"2.0"},"bufferViews":[{"buffer":0,"byteLength":1656,"byteOffset":0},{"buffer":0,"byteLength":2208,"byteOffset":1656},{"buffer":0,"byteLength":1656,"byteOffset":3864},{"buffer":0,"byteLength":1104,"byteOffset":5520},{"buffer":0,"byteLength":768,"byteOffset":6624},{"buffer":0,"byteLength":1464,"byteOffset":7392},{"buffer":0,"byteLength":1952,"byteOffset":8856},{"buffer":0,"byteLength":1464,"byteOffset":10808},{"buffer":0,"byteLength":976,"byteOffset":12272},{"buffer":0,"byteLength":1824,"byteOffset":13248},{"buffer":0,"byteLength":888,"byteOffset":15072},{"buffer":0,"byteLength":1184,"byteOffset":15960},{"buffer":0,"byteLength":888,"byteOffset":17144},{"buffer":0,"byteLength":592,"byteOffset":18032},{"buffer":0,"byteLength":1440,"byteOffset":18624},{"buffer":0,"byteLength":192,"byteOffset":20064},{"buffer":0,"byteLength":256,"byteOffset":20256},{"buffer":0,"byteLength":192,"byteOffset":20512},{"buffer":0,"byteLength":128,"byteOffset":20704},{"buffer":0,"byteLength":72,"byteOffset":20832},{"buffer":0,"byteLength":888,"byteOffset":20904},{"buffer":0,"byteLength":1184,"byteOffset":21792},{"buffer":0,"byteLength":888,"byteOffset":22976},{"buffer":0,"byteLength":592,"byteOffset":23864},{"buffer":0,"byteLength":1440,"byteOffset":24456},{"buffer":0,"byteLength":192,"byteOffset":25896},{"buffer":0,"byteLength":256,"byteOffset":26088},{"buffer":0,"byteLength":192,"byteOffset":26344},{"buffer":0,"byteLength":128,"byteOffset":26536},{"buffer":0,"byteLength":72,"byteOffset":26664},{"buffer":0,"byteLength":264,"byteOffset":26736},{"buffer":0,"byteLength":352,"byteOffset":27000},{"buffer":0,"byteLength":264,"byteOffset":27352},{"buffer":0,"byteLength":176,"byteOffset":27616},{"buffer":0,"byteLength":240,"byteOffset":27792},{"buffer":0,"byteLength":264,"byteOffset":28032},{"buffer":0,"byteLength":352,"byteOffset":28296},{"buffer":0,"byteLength":264,"byteOffset":28648},{"buffer":0,"byteLength":176,"byteOffset":28912},{"buffer":0,"byteLength":240,"byteOffset":29088},{"buffer":0,"byteLength":264,"byteOffset":29328},{"buffer":0,"byteLength":352,"byteOffset":29592},{"buffer":0,"byteLength":264,"byteOffset":29944},{"buffer":0,"byteLength":176,"byteOffset":30208},{"buffer":0,"byteLength":240,"byteOffset":30384},{"buffer":0,"byteLength":264,"byteOffset":30624},{"buffer":0,"byteLength":352,"byteOffset":30888},{"buffer":0,"byteLength":264,"byteOffset":31240},{"buffer":0,"byteLength":176,"byteOffset":31504},{"buffer":0,"byteLength":240,"byteOffset":31680},{"buffer":0,"byteLength":228,"byteOffset":31920},{"buffer":0,"byteLength":304,"byteOffset":32148},{"buffer":0,"byteLength":228,"byteOffset":32452},{"buffer":0,"byteLength":152,"byteOffset":32680},{"buffer":0,"byteLength":144,"byteOffset":32832},{"buffer":0,"byteLength":228,"byteOffset":32976},{"buffer":0,"byteLength":304,"byteOffset":33204},{"buffer":0,"byteLength":228,"byteOffset":33508},{"buffer":0,"byteLength":152,"byteOffset":33736},{"buffer":0,"byteLength":144,"byteOffset":33888}],"buffers":[{"byteLength":34032,"uri":"kinito_axolotl0.bin"}],"extensionsRequired":["KHR_texture_transform"],"extensionsUsed":["KHR_lights_punctual","KHR_texture_transform"],"materials":[{"pbrMetallicRoughness":{"baseColorFactor":[0.693872,0,0.783538,1],"metallicFactor":0,"roughnessFactor":1}},{"pbrMetallicRoughness":{"baseColorFactor":[0.83077,0.158961,0.896269,1],"metallicFactor":0,"roughnessFactor":1}},{"pbrMetallicRoughness":{"baseColorFactor":[1,1,1,1],"metallicFactor":0,"roughnessFactor":1}},{"pbrMetallicRoughness":{"baseColorFactor":[0,0,0,1],"metallicFactor":0,"roughnessFactor":1}},{"pbrMetallicRoughness":{"baseColorFactor":[1,1,1,1],"metallicFactor":0,"roughnessFactor":1}},{"pbrMetallicRoughness":{"baseColorFactor":[0,0,0,1],"metallicFactor":0,"roughnessFactor":1}},{"pbrMetallicRoughness":{"baseColorFactor":[0.015996,0.002732,0.015209,1],"metallicFactor":0,"roughnessFactor":1}},{"pbrMetallicRoughness":{"baseColorFactor":[0.015996,0.002732,0.015209,1],"metallicFactor":0,"roughnessFactor":1}},{"pbrMetallicRoughness":{"baseColorFactor":[0.015996,0.002732,0.015209,1],"metallicFactor":0,"roughnessFactor":1}},{"pbrMetallicRoughness":{"baseColorFactor":[0.015996,0.002732,0.015209,1],"metallicFactor":0,"roughnessFactor":1}},{"pbrMetallicRoughness":{"baseColorFactor":[0.015996,0.002732,0.015209,1],"metallicFactor":0,"roughnessFactor":1}},{"pbrMetallicRoughness":{"baseColorFactor":[0.015996,0.002732,0.015209,1],"metallicFactor":0,"roughnessFactor":1}}],"meshes":[{"extras":{"targetNames":[]},"primitives":[{"attributes":{"NORMAL":2,"POSITION":0,"TANGENT":1,"TEXCOORD_0":3},"indices":4,"material":0,"mode":4},{"attributes":{"NORMAL":7,"POSITION":5,"TANGENT":6,"TEXCOORD_0":8},"indices":9,"material":1,"mode":4}]},{"extras":{"targetNames":[]},"primitives":[{"attributes":{"NORMAL":12,"POSITION":10,"TANGENT":11,"TEXCOORD_0":13},"indices":14,"material":2,"mode":4},{"attributes":{"NORMAL":17,"POSITION":15,"TANGENT":16,"TEXCOORD_0":18},"indices":19,"material":3,"mode":4}]},{"extras":{"targetNames":[]},"primitives":[{"attributes":{"NORMAL":22,"POSITION":20,"TANGENT":21,"TEXCOORD_0":23},"indices":24,"material":4,"mode":4},{"attributes":{"NORMAL":27,"POSITION":25,"TANGENT":26,"TEXCOORD_0":28},"indices":29,"material":5,"mode":4}]},{"extras":{"targetNames":[]},"primitives":[{"attributes":{"NORMAL":32,"POSITION":30,"TANGENT":31,"TEXCOORD_0":33},"indices":34,"material":6,"mode":4}]},{"extras":{"targetNames":[]},"primitives":[{"attributes":{"NORMAL":37,"POSITION":35,"TANGENT":36,"TEXCOORD_0":38},"indices":39,"material":7,"mode":4}]},{"extras":{"targetNames":[]},"primitives":[{"attributes":{"NORMAL":42,"POSITION":40,"TANGENT":41,"TEXCOORD_0":43},"indices":44,"material":8,"mode":4}]},{"extras":{"targetNames":[]},"primitives":[{"attributes":{"NORMAL":47,"POSITION":45,"TANGENT":46,"TEXCOORD_0":48},"indices":49,"material":9,"mode":4}]},{"extras":{"targetNames":[]},"primitives":[{"attributes":{"NORMAL":52,"POSITION":50,"TANGENT":51,"TEXCOORD_0":53},"indices":54,"material":10,"mode":4}]},{"extras":{"targetNames":[]},"primitives":[{"attributes":{"NORMAL":57,"POSITION":55,"TANGENT":56,"TEXCOORD_0":58},"indices":59,"material":11,"mode":4}]}],"nodes":[{"children":[1,8,9],"extensions":{},"name":"Spatial"},{"children":[2,3],"extensions":{},"mesh":0,"name":"Headobj-d76f7f63cb092405e8dbf8b82fb74b31","translation":[-0.349705,0,-0.881613]},{"extensions":{},"mesh":1,"name":"Eyeobj-ecd3ae3ff5fe2eb0d1dc85392d3955e9","translation":[-0.462453,0.243825,0.938168]},{"children":[4,5,6,7],"extensions":{},"mesh":2,"name":"Eyeobj-ecd3ae3ff5fe2eb0d1dc85392d3955e10","translation":[0.516276,0.243825,0.938168]},{"extensions":{},"mesh":3,"name":"Leg1obj-6d221555dec44aa4f19f6d8f64f2fc05","translation":[-0.821239,-1.649977,-0.963543]},{"extensions":{},"mesh":4,"name":"Leg1obj-6d221555dec44aa4f19f6d8f64f2fc07","rotation":[-0.01698,0.999812,0.000159,0.009336],"translation":[-0.252733,-1.649977,-0.963543]},{"extensions":{},"mesh":5,"name":"Leg1obj-6d221555dec44aa4f19f6d8f64f2fc08","rotation":[0.999855,-0.014267,-0.009336,-0.000133],"translation":[-0.273323,-5.191482,-0.963543]},{"extensions":{},"mesh":6,"name":"Leg1obj-6d221555dec44aa4f19f6d8f64f2fc06","rotation":[0,0,0.999978,-0.006667],"translation":[-0.752486,-5.230613,-0.963543]},{"extensions":{},"mesh":7,"name":"Footobj-5e137e43cd654a295a89b029aa4405d9","rotation":[-0.055013,-0.842257,-0.034952,0.535121],"translation":[-0.864218,-5.199874,-0.72593]},{"extensions":{},"mesh":8,"name":"Footobj-5e137e43cd654a295a89b029aa4405d10","rotation":[0,-0.026482,0,0.999649],"translation":[0.049561,-5.270232,-0.660697]}],"scene":0,"scenes":[{"nodes":[0]}]}